<svg xmlns="http://www.w3.org/2000/svg" viewBox="0 0 48 48">
  <g id="pizza-icon">
    <path class="pizza-base" d="M40.63,11.39a37.49,37.49,0,0,0-33.26,0L9.63,16a18,18,0,0,1,1.87,8v4.44a2.07,2.07,0,0,0,1.66,2.08,2,2,0,0,0,2.34-2v-.68L23.11,43.2a1,1,0,0,0,1.78,0l2.61-5.27V40a1.5,1.5,0,0,0,3,0V34.2a9.88,9.88,0,0,1,1-4.43c1.26-2.56,2.61-5.27,4-8V24.5a1.5,1.5,0,0,0,3,0V18a10.05,10.05,0,0,1,1-4.44Z"/>
    <path class="pizza-crust" d="M24,7.5a37.27,37.27,0,0,1,16.63,3.89s2.47.31,2.87-1.89c1-5.5-15.33-7-19.5-7S3.5,4,4.5,9.5c.4,2.2,2.87,1.89,2.87,1.89A37.27,37.27,0,0,1,24,7.5Z"/>
    <circle class="topping" cx="30.5" cy="14.5" r="4.5"/>
    <circle class="topping" cx="17" cy="17" r="4.5"/>
    <path class="topping" d="M30.5,22.5a4.5,4.5,0,0,0,0,9l.19,0c1.11-2.23,2.29-4.62,3.49-7.06A4.47,4.47,0,0,0,30.5,22.5Z"/>
    <path class="topping" d="M23.5,33A4.49,4.49,0,0,0,19,28.5a4.44,4.44,0,0,0-2.71.93l3.91,7.89A4.49,4.49,0,0,0,23.5,33Z"/>
  </g>
  <style>
    .pizza-base { fill: #FFA500; }
    .pizza-crust { fill: #D2691E; }
    .topping { fill: #FF0000; }
    @media (prefers-color-scheme: dark) {
      .pizza-base { fill: #FFD700; }
      .pizza-crust { fill: #CD853F; }
      .topping { fill: #FF6347; }
    }
  </style>
</svg>